<svg width="24" height="25" viewBox="0 0 24 25" fill="none" xmlns="http://www.w3.org/2000/svg">
<path fill-rule="evenodd" clip-rule="evenodd" d="M20.7071 5.20711C21.0976 4.81658 21.0976 4.18342 20.7071 3.79289C20.3166 3.40237 19.6834 3.40237 19.2929 3.79289L12 11.0858L4.70711 3.79289C4.31659 3.40237 3.68342 3.40237 3.2929 3.79289C2.90237 4.18342 2.90237 4.81658 3.2929 5.20711L10.5858 12.5L3.29289 19.7929C2.90237 20.1834 2.90237 20.8166 3.29289 21.2071C3.68342 21.5976 4.31658 21.5976 4.70711 21.2071L12 13.9142L19.2929 21.2071C19.6834 21.5976 20.3166 21.5976 20.7071 21.2071C21.0976 20.8166 21.0976 20.1834 20.7071 19.7929L13.4142 12.5L20.7071 5.20711Z" fill="black"/>
</svg>
